<svg id="svg4578" height="40" viewBox="0 0 133 40" width="133" xmlns="http://www.w3.org/2000/svg"><g fill="#ffffff" fill-opacity="1"><g id="g22" stroke="none" stroke-linecap="butt" stroke-linejoin="miter" stroke-opacity="1" stroke-width="1" transform="translate(-107.34964 -249.12463)"><path id="path12" d="m160.391 260.27q.046.719.464 1.136.58.417 1.113.441 1.554 0 1.554-1.577-.371-1.577-1.554-1.577-1.577.278-1.577 1.577zm.58 24.701h1.925v-19.622h-1.925z"/><path id="path14" d="m168.439 275.183q0 4.36 2.899 7.26 2.899 2.899 7.283 2.899.046 0 .093 0 3.27 0 5.891-1.74v-2.435q-2.574 2.273-5.984 2.273-3.618 0-5.961-2.319-2.319-2.319-2.319-5.938 0-3.665 2.343-5.984 2.273-2.273 5.938-2.273 1.624 0 3.409.603l1.322.719 1.252.812v-2.319q-2.227-1.716-5.984-1.716-4.36 0-7.283 2.899-2.899 2.899-2.899 7.26z"/><path id="path16" d="m188.664 275.183q0 4.268 2.946 7.213 2.899 2.899 7.167 2.899 4.268 0 7.213-2.946 2.899-2.899 2.899-7.167 0-4.268-2.946-7.213-2.946-2.946-7.167-2.946-4.268 0-7.167 2.992-2.946 2.946-2.946 7.167zm1.902 0q0-3.317 2.458-5.798 2.412-2.458 5.752-2.458 3.479 0 5.845 2.412 2.366 2.366 2.366 5.845 0 3.409-2.412 5.845-2.366 2.366-5.798 2.366-3.363 0-5.798-2.412-2.412-2.412-2.412-5.798z"/><path id="path18" d="m212.692 267.297h2.667v17.673h1.948v-17.673h4.639v-1.948h-4.639v-10.599q0-3.131 2.644-3.131l1.299.139 1.276.302v-1.948q-.719-.325-1.276-.348-.278-.093-1.345-.093-4.569 0-4.546 4.523v11.156h-2.667v1.948z"/><path id="path20" d="m224.312 284.971h2.319l5.566-8.21 5.543 8.21h2.296l-6.656-9.927 6.517-9.695h-2.296l-5.404 8.118-5.474-8.118h-2.273l6.564 9.741-6.703 9.88z"/></g><path id="path4240-8-8-0-12-6-8-7-8-1-1-3" d="m18.425792 3.56837c-5.714752.01102-11.0924327 2.705831-14.5219497 7.277145.08214-.122181.167232-.242356.255202-.360403-2.551457 3.208926-3.94464999 7.185371-3.95384499 11.285012.000655 10.028423 8.11473459 18.166063 18.14311169 18.196426l-.000655.0018c.01273-.000011.02531-.000655.03803-.000655l.01774.000655c.01788-.000655.03577-.0013.05365-.0018 9.585948-.04382 18.042604-4.861682 23.669744-12.132731-2.338506.742168-4.65 1.055743-6.931308.894273.929032-2.204077 1.414442-4.569686 1.428488-6.961526-.000023-10.050581-8.147637-18.198196-18.198221-18.198196zm-14.2667477 6.916742c.06307-.08658.126962-.172599.191582-.258053h-.000328c-.06527.0849-.129005.170915-.191223.258053zm14.2667477-5.187916c9.095789 0 16.469372 7.373592 16.469372 16.46937-.0079 2.324427-.507643 4.620871-1.466513 6.738313-3.095229-.562216-6.132925-2.034804-9.10479-4.546347l-.002.0043c-1.64808-1.413618-3.747361-2.19133-5.918682-2.192617-2.67399.000491-5.212414 1.177139-6.940905 3.217374-5.3563903.06398-10.4361117-5.154101-7.8209567-10.41487 2.7067775-5.57984 8.4003117-9.263202 14.7845767-9.27563z" display="inline" opacity="1"/></g></svg>